<svg class="header__logo_text " width="106" height="20" viewBox="0 0 106 18" fill="none" xmlns="http://www.w3.org/2000/svg"><g opacity="1"><path fill="#000" d="M2.70361 16.1784V0.693115H0.554321V17.9133H11.7151V16.1784H2.70361Z"/><path fill="#000" d="M27.0962 17.9133H29.2714L22.7459 0.693115H19.5608L13.0352 17.9133H15.1845L16.8677 13.5112H25.4131L27.0962 17.9133ZM17.5151 11.7762L21.1404 2.24682L24.7657 11.7762H17.5151Z"/><path fill="#000" d="M33.6205 16.1784V0.693115H31.4712V17.9133H42.6319V16.1784H33.6205Z"/><path fill="#000" d="M58.0131 17.9133H60.1883L53.6627 0.693115H50.4776L43.9521 17.9133H46.1013L47.7845 13.5112H56.3299L58.0131 17.9133ZM48.4319 11.7762L52.0572 2.24682L55.6825 11.7762H48.4319Z"/><path fill="#000" d="M64.5373 16.1784V0.693115H62.388V17.9133H73.5488V16.1784H64.5373Z"/><path fill="#000" d="M74.581 17.9133H77.2741V15.6346H74.581V17.9133Z"/><path fill="#000" d="M92.7052 17.9133H94.8804L88.3548 0.693115H85.1698L78.6442 17.9133H80.7935L82.4767 13.5112H91.022L92.7052 17.9133ZM83.124 11.7762L86.7494 2.24682L90.3747 11.7762H83.124Z"/><path fill="#000" d="M106 2.42808V0.693115H96.5738V2.42808H100.225V16.1784H96.5738V17.9133H106V16.1784H102.348V2.42808H106Z"/></g></svg>