<svg enable-background="new 0 0 16 16" viewBox="0 0 16 16" xmlns="http://www.w3.org/2000/svg"><path d="m14.1 1.5c-.8-.4-1.7-.3-2.3.2l-3.8 2.8-3.8-2.8c-.7-.5-1.6-.6-2.4-.2s-1.2 1.1-1.2 2v9.1c0 .9.5 1.6 1.2 2 .3.2.6.2 1 .2.5 0 1-.2 1.4-.5l3.8-2.9 3.8 2.9c.4.3.9.5 1.4.5.3 0 .7-.1 1-.2.8-.4 1.2-1.1 1.2-2v-9.1c0-.9-.5-1.7-1.3-2zm-1.5 1c.3-.2.7-.3 1-.1s.5.5.5.8v1.6l-2.7 2.2-2.3-1.9zm1.5 4v2.5l-1.7-1.3zm-11.7-4.1c.1-.1.3-.1.4-.1.2 0 .4.1.6.2l3.5 2.7-2.3 1.8-2.7-2.1v-1.6c0-.4.2-.7.5-.9zm-.5 4.1 1.7 1.3-1.7 1.3zm1.5 6.6c-.3.2-.7.3-1 .1s-.5-.5-.5-.8v-1.6l2.7-2.1 2.3 1.8c0-.1-3.5 2.6-3.5 2.6zm4.6-3.5-.2-.2-2.2-1.6 2.4-1.8 2.3 1.8-2.2 1.7zm6.1 2.7c0 .4-.2.7-.5.8-.3.2-.7.1-1-.1l-3.5-2.7.3-.2 2.1-1.6 2.7 2.1v1.7z" fill="#131313"/></svg>