<svg xmlns="http://www.w3.org/2000/svg" width="807.13" height="186.54" fill="#fff"><path d="M69.27 139.38a21.76 21.76 0 0 1-2.54-.15 22.18 22.18 0 0 1-19.46-19.45 21.92 21.92 0 0 1 5.53-17.24 22.18 22.18 0 0 1 16.47-7.42h0a1.45 1.45 0 0 0 1.46-1.45v-59a10.36 10.36 0 0 1 10.33-10.33h0c5.702.011 10.323 4.628 10.34 10.33v82.55c0 12.227-9.903 22.143-22.13 22.16zm69.29-22.13V10.33A10.36 10.36 0 0 0 128.27 0h0a10.36 10.36 0 0 0-10.33 10.33v106c0 26.67-21.29 48.88-47.46 49.49h-1.17c-20.921-.001-39.496-13.383-46.123-33.227A48.63 48.63 0 0 1 40.09 78.32a10.32 10.32 0 0 0 4.15-8.26v-.3a10.19 10.19 0 0 0-16.17-8.23A69.23 69.23 0 0 0 .14 121.17c2 35.19 31.13 63.85 66.36 65.26.94 0 1.89.05 2.82.05 38.217-.055 69.188-31.013 69.26-69.23zm64.55 19.09a50.21 50.21 0 0 1-16.53-7.59l6.69-14.21a54.49 54.49 0 0 0 30.76 9.07q8.86 0 13.64-2.75 4.78-2.75 4.77-7.59c0-2.89-1.46-5.15-4.37-6.76s-8.08-3.2-15.51-4.73q-12.49-2.42-19.95-5.87-7.46-3.45-10.88-8.48a21.59 21.59 0 0 1-3.43-12.45 23.69 23.69 0 0 1 4.77-14.55 31.54 31.54 0 0 1 13.36-10 50.63 50.63 0 0 1 19.89-3.64 67.15 67.15 0 0 1 19.41 2.81q9.33 2.81 14.84 7.53l-6.72 14.16q-13-9.06-27.4-9.06-8.19 0-12.9 3a9.31 9.31 0 0 0-4.7 8.23 7.17 7.17 0 0 0 1.82 5 15.16 15.16 0 0 0 6 3.51 95.37 95.37 0 0 0 12 3.19q18.27 3.83 26.27 9.83 8 6 8 16.59a23.34 23.34 0 0 1-10.34 20.1q-10.35 7.33-28.89 7.34a77.3 77.3 0 0 1-20.6-2.68zm85.24-1.4a29 29 0 0 1-12.22-11.4 36.91 36.91 0 0 1 0-34.58 28.64 28.64 0 0 1 12.22-11.3 44.85 44.85 0 0 1 36.81 0 28.72 28.72 0 0 1 12.23 11.3 37 37 0 0 1 0 34.58 29.1 29.1 0 0 1-12.23 11.36 44.14 44.14 0 0 1-36.81 0zm33.18-28.65q0-9.06-3.82-13.53-3.82-4.47-10.95-4.47-14.79 0-14.78 18 .01 18 14.78 18 14.78-.01 14.77-18zm89.66-25.97q5.77 6.57 5.77 19.84v37.78h-20.28v-36.88c0-4.26-.83-7.36-2.49-9.32s-4.23-2.93-7.72-2.93a13.67 13.67 0 0 0-10.14 3.83q-3.82 3.83-3.83 10.2v35.1h-20.29V75.28h19.75v8.93a22.7 22.7 0 0 1 9.07-7.78 28.58 28.58 0 0 1 12.56-2.68q11.82 0 17.6 6.57zm86.4-5.04v55.89q0 15.19-9.14 23-9.14 7.81-27 7.78a69.54 69.54 0 0 1-17-2 52.86 52.86 0 0 1-14.31-5.74l5.38-13.28a54.55 54.55 0 0 0 25.39 6.61q16.67 0 16.66-14.93v-6.89a19.51 19.51 0 0 1-8.46 7.65 27.84 27.84 0 0 1-12.63 2.81 29.9 29.9 0 0 1-15.21-3.86 26.66 26.66 0 0 1-10.41-10.91 37.53 37.53 0 0 1 0-32.79 27.09 27.09 0 0 1 10.41-11 29.63 29.63 0 0 1 15.24-3.89 27.76 27.76 0 0 1 12.4 2.81 20.13 20.13 0 0 1 8.53 7.59v-8.8zm-24.11 41.86q4-4.35 4-12.13 0-7.78-4-12.18-4-4.41-11.09-4.41-7.09 0-11.12 4.41-4 4.4-4 12.18 0 7.78 4 12.06 4 4.41 11.15 4.41 7.15 0 11.06-4.34zm46.93 19.84a42.59 42.59 0 0 1-13.1-5.68l5.38-13.27a46 46 0 0 0 11.82 5.36 45.42 45.42 0 0 0 13 1.91 15.12 15.12 0 0 0 7.32-1.46 4.47 4.47 0 0 0 2.62-4 4.16 4.16 0 0 0-1.81-3.58c-1.21-.85-3.48-1.61-6.79-2.29l-10.74-2.3q-9.54-2-14-6.32-4.46-4.32-4.5-11.68a16.06 16.06 0 0 1 3.56-10.33 23.42 23.42 0 0 1 10.07-7 40.52 40.52 0 0 1 14.85-2.55 47.35 47.35 0 0 1 13.83 2A43.24 43.24 0 0 1 564 81.54l-5.37 12.76q-10.49-6.88-20.69-6.89a15 15 0 0 0-7.39 1.53 4.78 4.78 0 0 0-2.68 4.34 3.67 3.67 0 0 0 1.61 3.19 17.8 17.8 0 0 0 5.64 2.17l11.15 2.42q10.08 2.17 14.71 6.57 4.63 4.4 4.63 11.91a16.31 16.31 0 0 1-7.59 14.23q-7.59 5.17-20.88 5.17a66.24 66.24 0 0 1-16.73-1.96zm99.8-12.57l-1.08 14a59.83 59.83 0 0 1-7.79.51q-15 0-22-6.25-7-6.25-6.92-19v-24h-12.45V75.28h12.49V56.9h20.29v18.38h16.52V89.7h-16.52v23.84q0 11.23 11 11.23a55.91 55.91 0 0 0 6.46-.36zm59.8-44.03q7.05 6.65 7 20.55v37h-19.16v-9.32a15.48 15.48 0 0 1-6.71 7.6 21.58 21.58 0 0 1-11 2.74 28.31 28.31 0 0 1-12.16-2.55 21 21 0 0 1-8.59-7.15 17.59 17.59 0 0 1-3.16-10.21q0-6.88 3.69-10.85 3.69-3.97 11.89-5.74 8.19-1.78 22.44-1.79h3.49v-2.29q0-5.61-2.55-7.92c-1.71-1.53-4.66-2.29-8.87-2.29a40.05 40.05 0 0 0-10.75 1.66 53.2 53.2 0 0 0-11.3 4.6l-5.37-12.88a56.66 56.66 0 0 1 13.9-5.55 59.08 59.08 0 0 1 15.38-2.23q14.78-.01 21.83 6.62zm-15.92 41.54a13.47 13.47 0 0 0 3.63-9.76v-2.17h-2.28q-10.89 0-15.25 1.66-4.36 1.66-4.37 6a7.49 7.49 0 0 0 2.49 5.74 8.85 8.85 0 0 0 6.25 2.3 12.63 12.63 0 0 0 9.53-3.77zm79.61 2.49l-1.08 14a59.94 59.94 0 0 1-7.79.51q-15 0-22-6.25-7-6.25-6.92-19v-24h-12.45V75.28h12.49V56.9h20.32v18.38h16.53V89.7h-16.53v23.84q0 11.23 11 11.23a55.91 55.91 0 0 0 6.43-.36zm18.23 12.57a42.49 42.49 0 0 1-13.1-5.68l5.37-13.27a46 46 0 0 0 11.82 5.36 45.47 45.47 0 0 0 13 1.91 15.13 15.13 0 0 0 7.33-1.46 4.47 4.47 0 0 0 2.61-4 4.14 4.14 0 0 0-1.81-3.58q-1.81-1.27-6.78-2.29l-10.75-2.3q-9.54-2-14-6.32-4.46-4.32-4.5-11.68a16.12 16.12 0 0 1 3.56-10.33 23.39 23.39 0 0 1 10.08-7 40.46 40.46 0 0 1 14.84-2.55 47.37 47.37 0 0 1 13.84 2 43.37 43.37 0 0 1 12.08 5.75l-5.37 12.76q-10.49-6.88-20.69-6.89a15 15 0 0 0-7.39 1.53 4.79 4.79 0 0 0-2.69 4.34 3.69 3.69 0 0 0 1.61 3.19 18 18 0 0 0 5.65 2.17l11.15 2.43q10.07 2.17 14.71 6.57 4.64 4.4 4.63 11.9a16.31 16.31 0 0 1-7.59 14.23q-7.59 5.17-20.89 5.17a66.1 66.1 0 0 1-16.72-1.96z"/></svg>
